<?xml version="1.0" encoding="UTF-8" standalone="no"?>
<!DOCTYPE svg PUBLIC "-//W3C//DTD SVG 1.1//EN"
 "http://www.w3.org/Graphics/SVG/1.1/DTD/svg11.dtd">
<!-- Generated by graphviz version 2.43.0 (0)
 -->
<!-- Title: %3 Pages: 1 -->
<svg width="854pt" height="231pt"
 viewBox="0.00 0.00 853.86 231.00" xmlns="http://www.w3.org/2000/svg" xmlns:xlink="http://www.w3.org/1999/xlink">
<g id="graph0" class="graph" transform="scale(1 1) rotate(0) translate(4 227)">
<title>%3</title>
<polygon fill="#3f3f3f" stroke="transparent" points="-4,4 -4,-227 849.86,-227 849.86,4 -4,4"/>
<text text-anchor="middle" x="422.93" y="-9.2" font-family="Times,serif" font-size="16.00" fill="white">Network Map</text>
<!-- R5 -->
<g id="node1" class="node">
<title>R5</title>
<polygon fill="#006699" stroke="#006699" points="680.36,-223 603.36,-223 603.36,-150 680.36,-150 680.36,-223"/>
<text text-anchor="middle" x="641.86" y="-182.8" font-family="Helvetica,sans-Serif" font-size="14.00" fill="white">R5</text>
</g>
<!-- R3 -->
<g id="node2" class="node">
<title>R3</title>
<polygon fill="#006699" stroke="#006699" points="434.36,-99 357.36,-99 357.36,-26 434.36,-26 434.36,-99"/>
<text text-anchor="middle" x="395.86" y="-58.8" font-family="Helvetica,sans-Serif" font-size="14.00" fill="white">R3</text>
</g>
<!-- R3&#45;&#45;R5 -->
<g id="edge5" class="edge">
<title>R3&#45;&#45;R5</title>
<path fill="none" stroke="green" stroke-dasharray="5,2" d="M434.68,-83.02C453.65,-92.82 476.69,-105.11 496.86,-117 507.38,-123.2 509.13,-126.2 519.86,-132 546.92,-146.63 578.79,-160.5 603.17,-170.45"/>
<text text-anchor="middle" x="569.86" y="-120.8" font-family="Courier,monospace" font-size="14.00" fill="white"> &#160;&#160;&#160;&#160;&#160;&#160;&#160;&#160;&#160;&#160;&#160;</text>
<text text-anchor="middle" x="578.17" y="-159.25" font-family="Courier,monospace" font-size="14.00" fill="white">Gig0/2</text>
<text text-anchor="middle" x="459.68" y="-71.82" font-family="Courier,monospace" font-size="14.00" fill="white">Gig0/2</text>
</g>
<!-- R7 -->
<g id="node5" class="node">
<title>R7</title>
<polygon fill="#006699" stroke="#006699" points="188.36,-223 111.36,-223 111.36,-150 188.36,-150 188.36,-223"/>
<text text-anchor="middle" x="149.86" y="-182.8" font-family="Helvetica,sans-Serif" font-size="14.00" fill="white">R7</text>
</g>
<!-- R3&#45;&#45;R7 -->
<g id="edge4" class="edge">
<title>R3&#45;&#45;R7</title>
<path fill="none" stroke="green" stroke-dasharray="5,2" d="M357.15,-82.7C311.15,-105.51 234.83,-143.36 188.75,-166.21"/>
<text text-anchor="middle" x="337.86" y="-120.8" font-family="Courier,monospace" font-size="14.00" fill="white"> &#160;&#160;&#160;&#160;&#160;&#160;&#160;&#160;&#160;&#160;&#160;</text>
<text text-anchor="middle" x="213.75" y="-155.01" font-family="Courier,monospace" font-size="14.00" fill="white">Gig0/2</text>
<text text-anchor="middle" x="332.15" y="-71.5" font-family="Courier,monospace" font-size="14.00" fill="white">Gig0/3</text>
</g>
<!-- R6 -->
<g id="node6" class="node">
<title>R6</title>
<polygon fill="#006699" stroke="#006699" points="434.36,-223 357.36,-223 357.36,-150 434.36,-150 434.36,-223"/>
<text text-anchor="middle" x="395.86" y="-182.8" font-family="Helvetica,sans-Serif" font-size="14.00" fill="white">R6</text>
</g>
<!-- R3&#45;&#45;R6 -->
<g id="edge3" class="edge">
<title>R3&#45;&#45;R6</title>
<path fill="none" stroke="green" stroke-dasharray="5,2" d="M395.86,-99.12C395.86,-115.01 395.86,-133.7 395.86,-149.63"/>
<text text-anchor="middle" x="445.86" y="-120.8" font-family="Courier,monospace" font-size="14.00" fill="white"> &#160;&#160;&#160;&#160;&#160;&#160;&#160;&#160;&#160;&#160;&#160;</text>
<text text-anchor="middle" x="370.86" y="-138.43" font-family="Courier,monospace" font-size="14.00" fill="white">Gig0/1</text>
<text text-anchor="middle" x="370.86" y="-102.92" font-family="Courier,monospace" font-size="14.00" fill="white">Gig0/1</text>
</g>
<!-- R2 -->
<g id="node3" class="node">
<title>R2</title>
<polygon fill="#006699" stroke="#006699" points="741.36,-99 664.36,-99 664.36,-26 741.36,-26 741.36,-99"/>
<text text-anchor="middle" x="702.86" y="-58.8" font-family="Helvetica,sans-Serif" font-size="14.00" fill="white">R2</text>
</g>
<!-- R2&#45;&#45;R5 -->
<g id="edge2" class="edge">
<title>R2&#45;&#45;R5</title>
<path fill="none" stroke="green" stroke-dasharray="5,2" d="M739.57,-99.16C746.21,-109.76 749.25,-121.38 742.86,-132 729.35,-154.44 702.92,-167.96 680.49,-175.8"/>
<text text-anchor="middle" x="795.86" y="-120.8" font-family="Courier,monospace" font-size="14.00" fill="white"> &#160;&#160;&#160;&#160;&#160;&#160;&#160;&#160;&#160;&#160;&#160;</text>
<text text-anchor="middle" x="705.49" y="-164.6" font-family="Courier,monospace" font-size="14.00" fill="white">Gig0/1</text>
<text text-anchor="middle" x="714.57" y="-102.96" font-family="Courier,monospace" font-size="14.00" fill="white">Gig0/1</text>
</g>
<!-- R2&#45;&#45;R6 -->
<g id="edge1" class="edge">
<title>R2&#45;&#45;R6</title>
<path fill="none" stroke="green" stroke-dasharray="5,2" d="M664.28,-95.66C643.27,-113.12 621.24,-131.31 619.86,-132 559.2,-162.22 480.67,-175.88 434.53,-181.65"/>
<text text-anchor="middle" x="686.86" y="-120.8" font-family="Courier,monospace" font-size="14.00" fill="white"> &#160;&#160;&#160;&#160;&#160;&#160;&#160;&#160;&#160;&#160;&#160;</text>
<text text-anchor="middle" x="459.53" y="-170.45" font-family="Courier,monospace" font-size="14.00" fill="white">Gig0/2</text>
<text text-anchor="middle" x="639.28" y="-84.46" font-family="Courier,monospace" font-size="14.00" fill="white">Gig0/2</text>
</g>
<!-- R4 -->
<g id="node4" class="node">
<title>R4</title>
<polygon fill="#006699" stroke="#006699" points="127.36,-99 50.36,-99 50.36,-26 127.36,-26 127.36,-99"/>
<text text-anchor="middle" x="88.86" y="-58.8" font-family="Helvetica,sans-Serif" font-size="14.00" fill="white">R4</text>
</g>
<!-- R4&#45;&#45;R7 -->
<g id="edge7" class="edge">
<title>R4&#45;&#45;R7</title>
<path fill="none" stroke="green" stroke-dasharray="5,2" d="M50,-84.95C31.96,-97.81 16.71,-114.94 27.86,-132 46.21,-160.07 82.91,-173.51 111.29,-179.88"/>
<text text-anchor="middle" x="77.86" y="-120.8" font-family="Courier,monospace" font-size="14.00" fill="white"> &#160;&#160;&#160;&#160;&#160;&#160;&#160;&#160;&#160;&#160;&#160;</text>
<text text-anchor="middle" x="86.29" y="-168.68" font-family="Courier,monospace" font-size="14.00" fill="white">Gig0/1</text>
<text text-anchor="middle" x="25" y="-73.75" font-family="Courier,monospace" font-size="14.00" fill="white">Gig0/1</text>
</g>
<!-- R4&#45;&#45;R6 -->
<g id="edge6" class="edge">
<title>R4&#45;&#45;R6</title>
<path fill="none" stroke="green" stroke-dasharray="5,2" d="M115.83,-99.1C126.71,-111.21 140.17,-123.76 154.86,-132 189.16,-151.24 298.11,-170.38 357.07,-179.69"/>
<text text-anchor="middle" x="204.86" y="-120.8" font-family="Courier,monospace" font-size="14.00" fill="white"> &#160;&#160;&#160;&#160;&#160;&#160;&#160;&#160;&#160;&#160;&#160;</text>
<text text-anchor="middle" x="332.07" y="-168.49" font-family="Courier,monospace" font-size="14.00" fill="white">Gig0/3</text>
<text text-anchor="middle" x="90.83" y="-102.9" font-family="Courier,monospace" font-size="14.00" fill="white">Gig0/2</text>
</g>
</g>
</svg>
